<svg width="64" height="115" fill="none" xmlns="http://www.w3.org/2000/svg"><path d="M27.21 11.37C32.86 23.03 15.46 30.94 7.48 22.2c-3.32-3.72-1.8-10.92 6.27-14.83 4.04-2 9.7-3.83 13.46 4zM62.8 6.24c6.14 12.7-12.8 21.31-21.5 11.8-3.61-4.07-1.95-11.9 6.84-16.16C52.54-.3 58.7-2.27 62.8 6.24z" fill="#000"/><path fill-rule="evenodd" clip-rule="evenodd" d="M26.4 114.7c12.87 1.48 26.27-2.56 31.45-10.9 4.37-7 .8-9.43-4.25-3.78-10.61 12.26-21.62 6.74-26.26-5.65l1.2-.4C50.93 84.95 65 60.45 56.11 46.59 43.92 27.47 5.72 44.56.94 71.35c-4.38 24.77 7.03 41.33 25.46 43.35zm13.8-66.77c3.85 6.2-.8 28.14-14.72 38.1-.4-3.1-.4-6.46-.14-9.96 2.8-24.5 10.75-34.6 14.86-28.14z" fill="#000"/></svg>